<svg width="126" height="150" xmlns="http://www.w3.org/2000/svg" version="1.1" enable-background="new 0 0 126 150" xml:space="preserve">
 <g>
  <title>Layer 1</title>
  <path fill="#219FD8" d="m6.15969,104.00626c-1.49299,-1.3052 -2.98598,-2.61038 -4.81933,-3.96091c-0.34036,-4.06989 -0.34036,-8.09444 -0.34036,-12.58217c2.21949,-3.21065 4.43898,-5.95811 7.18359,-9.06909c2.13346,-0.74427 3.74181,-1.12505 5.49681,-1.06796c1.04499,9.48527 1.94332,18.53268 2.37412,27.64212c-3.60997,-0.27932 -6.7524,-0.62066 -9.89483,-0.96199z" id="svg_2"/>
  <path fill="#701486" d="m85.94388,16.15768c11.23223,-0.87298 22.46447,-1.74596 34.00494,-2.64289c-2.06807,16.1798 -4.01829,31.43752 -6.33084,47.38437c-0.88382,4.54137 -1.40529,8.39359 -2.31744,12.21719c-2.6566,0.2965 -4.92253,0.62162 -7.16553,0.52504c0.93893,-11.35601 1.97584,-22.2819 2.73691,-33.22698c0.75857,-10.90918 -1.21844,-12.65527 -12.02336,-11.26814c-0.65839,0.08452 -1.29976,0.31916 -1.95863,0.3797c-9.0941,0.83565 -18.18988,1.653 -27.10847,2.17163c1.69109,-1.48675 3.20539,-2.67029 4.47657,-3.66381c-2.69617,-3.62497 -4.77514,-6.42013 -6.39384,-9.22352c7.66675,-0.88968 14.87321,-1.77113 22.07969,-2.65259z" id="svg_3"/>
  <path fill="#701486" d="m14.15595,58.05329c-1.41149,-11.48012 -2.82297,-22.96025 -4.33287,-35.24084c7.66115,-0.62741 14.94576,-1.224 23.13521,-1.78606c7.89799,-0.3876 14.89116,-0.80972 21.89157,-0.86014c0.82821,1.59778 1.44374,3.05316 2.50848,4.00718c3.25082,2.91275 3.1111,5.849 0.10095,9.00747c-12.35695,1.36614 -24.30865,2.73084 -36.43255,4.1152c1.03075,12.60857 2.01495,24.64776 2.60311,36.68715c-2.47223,-0.32641 -4.54843,-0.65302 -6.68345,-1.38838c-0.96935,-5.1197 -1.8799,-9.83064 -2.79045,-14.54158z" id="svg_4"/>
  <path fill="#040304" d="m114.99706,105.16216c-2.47131,7.71034 -4.94263,15.42068 -7.7959,24.32266c-2.00117,-2.14178 -2.90242,-3.10634 -3.39503,-3.63357c-2.82162,2.48516 -5.78162,5.0922 -8.74162,7.69924c-0.31005,-0.2297 -0.6201,-0.4594 -0.93015,-0.6891c0.30683,-1.4399 0.61366,-2.87978 0.83845,-3.93469c-7.21812,4.11259 -14.34637,8.57663 -21.83263,12.32573c-7.43046,3.72114 -14.67589,2.30755 -21.59757,-2.13916c-5.93111,-3.81035 -12.11763,-7.22313 -18.37621,-10.92105c-0.10035,1.54109 -0.19437,2.98486 -0.28823,4.42607c-4.09801,-0.0402 -11.74842,-13.60331 -12.74789,-23.50661c1.90668,-1.1014 3.65368,-1.54882 5.42826,-1.80595c3.42388,-0.49609 3.91832,-2.45122 3.17005,-5.27616c0.60433,0.01685 0.84611,0.00848 1.19441,0.37333c2.65841,15.47613 11.81852,26.09248 23.69932,34.74908c6.14835,4.4798 12.92272,5.70335 19.48675,1.13986c12.5685,-8.73799 22.99731,-19.15814 25.35561,-35.20102c0.05405,4.1376 3.35849,3.80189 5.64039,4.56638c3.02151,1.01228 5.43755,0.10588 7.44389,-2.68128c1.40506,0.07702 2.42658,0.13163 3.4481,0.18624z" id="svg_5"/>
  <path fill="#B121D6" d="m28.36602,102.00436c1.11084,2.85015 0.6164,4.80528 -2.80748,5.30137c-1.77458,0.25713 -3.52158,0.70455 -5.49251,1.40084c-1.13039,-0.15593 -2.04933,-0.64669 -3.03591,-1.69001c-0.21446,-1.0718 -0.36126,-1.59107 -0.50806,-2.11033c-0.89834,-9.04742 -1.79667,-18.09483 -2.70975,-27.8948c1.05447,-1.83764 2.12369,-2.92272 3.19291,-4.0078c2.0762,0.3266 4.1524,0.65321 6.78248,1.34425c0.82781,2.78776 1.10175,5.2111 1.30793,8.07518c1.04496,6.82095 2.15767,13.20112 3.27039,19.5813z" id="svg_6"/>
  <path fill="#219FD9" d="m115.39799,105.09538c-1.42245,0.01217 -2.44397,-0.04244 -3.83828,-0.52632c0.60424,-9.46181 1.58125,-18.49435 2.8994,-27.49199c2.05083,0.58401 3.76052,1.13314 5.47022,1.68226c4.2104,1.48512 6.27225,4.51265 6.03917,8.91847c-0.20433,3.86239 -0.16999,7.85428 -1.18942,11.52563c-1.14722,4.13145 -4.56977,6.05647 -9.38109,5.89195z" id="svg_7"/>
  <path fill="#E9CF3D" d="m57.86453,33.17946c2.60491,-3.15703 2.74463,-6.09328 -0.50619,-9.00603c-1.06474,-0.95402 -1.68027,-2.4094 -2.26913,-4.22438c2.07218,-3.04297 3.91224,-5.49705 5.75231,-7.95114c1.29441,-1.39199 2.58883,-2.78397 4.64942,-4.99987c-0.24417,2.21972 -0.3561,3.23727 -0.68316,4.90632c-0.61138,2.73905 -1.00762,4.82659 -1.40387,6.91413c2.07898,2.79517 4.15795,5.59033 6.85412,9.2153c-1.27118,0.99352 -2.78548,2.17706 -4.74939,3.79988c-3.25728,2.76115 -6.06496,5.08303 -8.87264,7.40491c-0.24225,-0.22937 -0.48449,-0.45874 -0.72674,-0.68811c0.65176,-1.79034 1.30351,-3.58068 1.95527,-5.37101z" id="svg_8"/>
  <path fill="#040203" d="m60.41576,11.99635c-1.41431,2.45565 -3.25437,4.90973 -5.3338,7.58102c-7.23251,0.6393 -14.22568,1.06142 -21.67729,1.41602c7.46535,-6.34753 16.79471,-8.37142 27.01109,-8.99704z" id="svg_9"/>
  <path fill="#040104" d="m63.86419,18.81027c-0.06403,-2.07932 0.33221,-4.16686 0.98167,-6.56563c6.96666,0.98236 13.6801,2.27595 20.74578,3.74128c-6.85424,1.05322 -14.0607,1.93467 -21.72745,2.82435z" id="svg_10"/>
  <path fill="#050106" d="m16.9464,72.59487c-1.0104,1.49384 -2.07962,2.57892 -3.28075,3.97871c-1.74025,0.69546 -3.3486,1.07624 -5.32029,1.52414c-1.51129,-0.0249 -2.65924,-0.11692 -4.21428,-0.24158c4.20051,-5.99577 11.55789,-10.20718 9.95815,-19.36972c0.97727,4.27781 1.88782,8.98875 2.85717,14.10845z" id="svg_11"/>
  <path fill="#020104" d="m119.9482,78.38292c-1.72857,-0.17271 -3.43826,-0.72184 -5.61138,-1.61669c-1.19082,-1.43757 -1.91822,-2.52941 -2.6456,-3.62125c0.52147,-3.85223 1.04294,-7.70445 1.85628,-11.81087c2.33443,5.38801 4.377,11.0302 6.4007,17.04881z" id="svg_12"/>
  <path fill="#010304" d="m16.05452,104.96825c0.61434,0.45724 0.76114,0.97651 0.8291,1.76414c-4.44672,1.07026 -8.8146,1.87216 -13.18249,2.67404c-0.1917,-0.57489 -0.3834,-1.14978 -0.5751,-1.72468c0.91652,-1.01097 1.83305,-2.02194 2.89162,-3.3542c3.28447,0.02004 6.4269,0.36138 10.03687,0.6407z" id="svg_13"/>
  <path fill="#020102" d="m57.45929,33.1809c-0.24652,1.78889 -0.89827,3.57923 -1.55003,5.36957c0.24225,0.22937 0.48449,0.45874 0.72674,0.68811c2.80768,-2.32188 5.61536,-4.64376 8.69586,-7.1017c9.36819,-0.95791 18.46397,-1.77526 27.55807,-2.61091c0.65887,-0.06054 1.30024,-0.29518 1.95863,-0.3797c10.80492,-1.38713 12.78193,0.35896 12.02336,11.26814c-0.76107,10.94508 -1.79798,21.87097 -2.95923,33.52972c-0.81506,2.54202 -1.38488,4.3596 -2.30143,5.96355c-0.11314,-4.32267 0.27519,-8.42987 0.32478,-12.54116c0.14401,-11.94035 -0.6213,-12.20724 -11.36474,-7.26609c-7.37298,3.39099 -15.13463,5.93688 -22.72255,8.86053c-0.08228,-0.35788 -0.16456,-0.71577 -0.24684,-1.07365c1.5306,-2.32583 3.06121,-4.65166 4.23389,-6.43359c-14.83958,3.88486 -29.68481,7.7712 -45.18893,11.83004c0,2.37822 0,5.51777 -0.2474,8.63747c-0.57558,0.02395 -0.90515,0.05092 -1.23609,0.06108c-0.27393,-2.42333 -0.54787,-4.84667 -0.97965,-7.63462c-1.14204,-12.40383 -2.12624,-24.44302 -3.15699,-37.05159c12.1239,-1.38436 24.0756,-2.74906 36.43255,-4.1152z" id="svg_14"/>
  <path fill="#B022D6" d="m101.95799,80.1213c0.56982,-1.81757 1.13964,-3.63515 1.93178,-5.75547c2.48824,-0.62786 4.75417,-0.95298 7.41077,-1.24948c1.11806,1.12047 1.84546,2.21231 2.69514,3.61499c-0.85472,9.34337 -1.83173,18.37591 -2.8195,27.81531c-1.63356,3.21643 -4.0496,4.12283 -7.07111,3.11055c-2.2819,-0.76449 -5.58634,-0.42878 -5.64697,-4.80112c-0.01628,-0.81448 0.28223,-1.18199 0.91501,-1.73943c1.05315,-6.82327 1.77204,-13.45661 2.52576,-20.31512c0.03482,-0.22517 0.05912,-0.68023 0.05912,-0.68023z" id="svg_15"/>
  <path fill="#D1D1D1" d="m99.03884,101.30657c-0.29851,0.36752 -0.59702,0.73503 -0.88895,1.3373c-2.04351,16.48983 -12.47232,26.90998 -25.04082,35.64797c-6.56403,4.56349 -13.3384,3.33994 -19.48675,-1.13986c-11.8808,-8.6566 -21.04091,-19.27295 -23.67368,-35.15129c-1.15452,-7.20348 -2.22815,-13.63154 -3.30177,-20.05961c0,-3.13955 0,-6.2791 0,-8.65732c15.50412,-4.05884 30.34935,-7.94518 45.18893,-11.83004c-1.17268,1.78193 -2.70329,4.10776 -4.23389,6.43359c0.08228,0.35788 0.16456,0.71577 0.24684,1.07365c7.58792,-2.92365 15.34957,-5.46954 22.72255,-8.86053c10.74344,-4.94115 11.50875,-4.67426 11.36474,7.26609c-0.04959,4.11129 -0.43792,8.21849 -0.32477,12.54116c0.34672,0.21362 0.32242,0.66868 -0.0584,1.08542c-1.09189,7.049 -1.80295,13.68123 -2.51403,20.31347z" id="svg_16"/>
  <path fill="#261B29" d="m26.39947,81.92123c1.32102,6.44792 2.39465,12.87598 3.44264,19.70626c-0.26741,0.41056 -0.50919,0.41893 -1.11352,0.40208c-1.47529,-6.40539 -2.588,-12.78556 -3.63296,-19.60651c0.39869,-0.45091 0.72826,-0.47788 1.30384,-0.50183z" id="svg_17"/>
  <path fill="#18111A" d="m99.37311,101.11665c0.37681,-6.44232 1.08787,-13.07455 2.14494,-19.89837c-0.3729,6.44176 -1.09179,13.0751 -2.14494,19.89837z" id="svg_18"/>
 </g>

</svg>